# xmcd CD database file
#
# Track frame offsets:
#	150
#	16580
#	30485
#	51419
#	64687
#	84763
#	105330
#	122359
#	142506
#	161348
#	180885
#	197425
#
# Disc length: 2858 seconds
#
# Revision: 0
# Processed by: cddbd v1.5.1PL2 Copyright (c) Steve Scherf et al.
# Submitted via: CDex 1.51
#
DISCID=750b280c
DTITLE=Jim Kremens - Spun
DYEAR=2002
DGENRE=Blues
TTITLE0=Juliana
TTITLE1=I Couldn't Love You More Than This
TTITLE2=The Truth About Me
TTITLE3=Understood
TTITLE4=Ordinary Day
TTITLE5=Lay Down Beside Me
TTITLE6=Street Fair
TTITLE7=Give Me Your Kiss
TTITLE8=Miracle
TTITLE9=Macchupicchu
TTITLE10=This Is The Place
TTITLE11=Denied
EXTD=YEAR: 2002
EXTT0=
EXTT1=
EXTT2=
EXTT3=
EXTT4=
EXTT5=
EXTT6=
EXTT7=
EXTT8=
EXTT9=
EXTT10=
EXTT11=
PLAYORDER=
